<?xml version="1.0" standalone="no"?>
<!DOCTYPE svg PUBLIC "-//W3C//DTD SVG 20010904//EN"
 "http://www.w3.org/TR/2001/REC-SVG-20010904/DTD/svg10.dtd">
<svg version="1.0" xmlns="http://www.w3.org/2000/svg"
 width="512.000000pt" height="512.000000pt" viewBox="0 0 512.000000 512.000000"
 preserveAspectRatio="xMidYMid meet">
<metadata>
Created by potrace 1.11, written by Peter Selinger 2001-2013
</metadata>
<g transform="translate(0.000000,512.000000) scale(0.100000,-0.100000)"
fill="#000000" stroke="none">
<path d="M415 5110 c-183 -38 -330 -170 -391 -350 -18 -53 -19 -134 -19 -2200
0 -2066 1 -2147 19 -2200 52 -154 168 -274 322 -332 l59 -23 2155 0 2155 0 59
23 c154 58 270 178 322 332 18 53 19 134 19 2200 0 2066 -1 2147 -19 2200 -52
154 -168 274 -322 332 l-59 23 -2130 1 c-1172 1 -2148 -2 -2170 -6z m2695
-525 c87 -27 166 -73 225 -133 106 -107 140 -231 93 -334 -45 -97 -199 -218
-279 -218 -73 0 -92 27 -104 150 -9 85 -48 237 -73 286 -27 51 -70 92 -113
104 -53 16 -130 11 -176 -9 -80 -37 -152 -169 -188 -347 -35 -168 -43 -307
-51 -819 -6 -418 -6 -452 10 -468 16 -15 52 -17 406 -17 239 0 399 -4 415 -10
26 -10 27 -13 20 -58 -4 -26 -13 -61 -20 -79 l-14 -32 -384 -3 c-319 -2 -387
-5 -402 -18 -16 -13 -17 -61 -12 -835 5 -829 11 -983 43 -1032 14 -23 17 -23
243 -23 199 0 230 -2 235 -16 12 -30 6 -141 -7 -152 -9 -8 -203 -11 -638 -11
-711 0 -659 -6 -659 86 0 86 13 93 169 93 107 0 131 3 142 17 12 13 14 127 17
627 1 336 -1 755 -5 931 l-8 320 -127 5 c-85 3 -131 9 -140 18 -17 17 -17 137
0 154 9 9 55 15 140 18 l127 5 -4 385 c-3 387 3 510 35 665 32 159 107 336
184 439 126 168 322 285 547 326 74 14 289 4 353 -15z"/>
</g>
</svg>
